<?xml version="1.0" encoding="UTF-8" standalone="no"?>
<!DOCTYPE svg PUBLIC "-//W3C//DTD SVG 1.1//EN" "http://www.w3.org/Graphics/SVG/1.1/DTD/svg11.dtd">
<svg width="100%" height="100%" viewBox="0 0 40 40" version="1.1" xmlns="http://www.w3.org/2000/svg" xmlns:xlink="http://www.w3.org/1999/xlink" xml:space="preserve" xmlns:serif="http://www.serif.com/" style="fill-rule:evenodd;clip-rule:evenodd;stroke-linejoin:round;stroke-miterlimit:2;">
    <g transform="matrix(0.24,0,0,0.24,0,0)">
        <g>
            <clipPath id="_clip1">
                <rect x="0" y="0" width="166.667" height="166.667"/>
            </clipPath>
            <g clip-path="url(#_clip1)">
                <g transform="matrix(0.043537,0,0,-0.043537,-10.101008,175.636163)">
                    <path d="M3288,3883L3343,3980L3521,3980C3728,3980 3721,3984 3666,3886C3635,3830 3458,3497 3322,3240C3292,3182 3264,3131 3260,3125C3256,3120 3232,3077 3207,3030C3183,2983 3146,2914 3125,2875C3105,2837 3083,2799 3078,2793C3070,2783 3020,2780 2890,2780C2793,2780 2710,2783 2707,2786C2703,2790 2716,2820 2734,2854C2793,2962 2831,3032 2893,3150C2926,3213 2992,3337 3040,3425C3088,3513 3151,3630 3180,3685C3209,3740 3257,3829 3288,3883ZM3637,3608C3651,3631 3665,3650 3668,3650C3672,3650 3687,3624 3702,3592C3717,3561 3752,3488 3779,3430C3807,3372 3830,3316 3830,3305C3830,3284 3820,3262 3700,3035C3619,2880 3580,2808 3567,2793C3560,2783 3511,2780 3385,2780C3291,2780 3210,2783 3207,2787C3203,2790 3223,2836 3252,2889C3280,2942 3316,3010 3333,3040C3349,3070 3379,3127 3400,3165C3421,3204 3477,3309 3525,3400C3573,3491 3624,3584 3637,3608ZM1510,3363L1684,3540L2327,3540C2781,3540 2970,3537 2970,3529C2970,3518 2910,3402 2830,3260C2804,3213 2769,3150 2754,3120L2725,3065L1987,3055L1706,2500C1551,2194 1409,1913 1388,1875L1352,1805L1164,1799L1098,1677C1061,1610 1013,1519 990,1475C966,1431 940,1382 930,1365C897,1309 857,1235 792,1110C756,1041 713,960 695,930C678,900 657,860 649,843C642,825 631,810 625,810C616,810 460,1121 452,1154C450,1164 551,1365 670,1585C706,1652 785,1805 1033,2290C1316,2844 1450,3110 1450,3116C1450,3119 1400,3058 1339,2979C1198,2796 918,2432 775,2247C715,2168 652,2087 635,2066L605,2029L418,2032L232,2035L298,2105C334,2144 528,2346 729,2555C930,2764 1149,2991 1215,3060C1281,3129 1413,3265 1510,3363ZM2192,2438L2232,2510L2931,2510C3315,2510 3630,2507 3630,2503C3630,2498 3499,2234 3340,1916C3180,1597 3050,1332 3050,1327C3050,1322 3074,1349 3103,1386C3280,1614 3394,1759 3545,1948L3714,2160L3887,2160C3982,2160 4060,2157 4060,2153C4060,2149 3784,1873 3448,1538L2835,931L2078,930C1661,930 1320,933 1320,938C1320,942 1326,954 1334,965C1346,983 1452,1184 1530,1338L1561,1400L2034,1400C2401,1400 2510,1403 2518,1413C2525,1422 2823,2007 2838,2042C2840,2047 2650,2050 2416,2050C2182,2050 1990,2053 1990,2057C1990,2062 2033,2144 2123,2310C2140,2340 2171,2398 2192,2438ZM1334,1693C1395,1694 1475,1697 1512,1698C1579,1700 1601,1690 1582,1667C1577,1660 1529,1570 1475,1465C1421,1361 1369,1262 1360,1245C1350,1229 1313,1159 1278,1090C1211,962 1116,780 978,515C935,433 887,341 873,312C858,284 841,260 835,260C830,260 816,279 805,303C785,344 718,471 667,560L642,606L682,680C704,721 751,810 786,878C821,945 872,1040 899,1088C925,1136 977,1234 1015,1305C1052,1377 1086,1440 1090,1445C1094,1451 1117,1491 1140,1535C1163,1579 1192,1632 1203,1652L1223,1689L1334,1693Z" style="fill:rgb(184,212,20);"/>
                </g>
            </g>
        </g>
    </g>
</svg>
